<svg width="3028" height="2736" viewBox="0 0 3028 2736" fill="none" xmlns="http://www.w3.org/2000/svg">
<path d="M3027.13 816.983C3027.75 807.132 3027.75 796.666 3027.75 786.2C3027.75 365.087 2673.16 0 2234.86 0C1914.75 0 1638.97 206.247 1514 469.134C1389.03 206.247 1113.25 0 793.139 0C354.836 0 0.253226 365.087 0.253226 786.2C0.253226 796.666 0.253264 807.132 0.868858 816.983C0.868858 816.983 -44.0697 1317.52 512.428 1862.99C765.437 2116.64 1048.61 2357.98 1514 2736C1979.39 2357.98 2262.56 2116.64 2515.57 1862.99C3072.07 1317.52 3027.13 816.983 3027.13 816.983Z" fill="#E35959"/>
</svg>
